<?xml version="1.0" encoding="utf-8"?>
<!-- Generator: Adobe Illustrator 26.0.1, SVG Export Plug-In . SVG Version: 6.00 Build 0)  -->
<svg version="1.1" id="レイヤー_1" xmlns="http://www.w3.org/2000/svg" xmlns:xlink="http://www.w3.org/1999/xlink" x="0px"
	 y="0px" viewBox="0 0 318.5 48.3" style="enable-background:new 0 0 318.5 48.3;" xml:space="preserve">
<style type="text/css">
	.st0{fill:#45473A;}
</style>
<g>
	<path class="st0" d="M0,37.5c0-4.2,2.1-7.8,6.3-10.8c4.2-3,6.3-5.6,6.3-7.7V9.9c0-2.1-1-3.2-2.9-3.2h0c-2,0-2.9,1.1-2.9,3.2v6.3H0
		V9.9C0,3.3,3.2,0,9.7,0c6.5,0,9.7,3.3,9.7,9.9v9.3c0,4.3-2.1,8-6.3,11c-4.2,3-6.3,5.6-6.3,7.9v2.8h12.6v6.7H0V37.5z"/>
	<path class="st0" d="M46.7,38.5c0,6.6-3.2,9.8-9.7,9.8c-6.5,0-9.7-3.3-9.7-9.8V9.9C27.3,3.3,30.5,0,37,0c6.5,0,9.7,3.3,9.7,9.9
		V38.5z M40,9.9c0-2.1-1-3.2-2.9-3.2h0c-1.9,0-2.9,1.1-2.9,3.2v28.6c0,2.1,1,3.2,2.9,3.2c2,0,3-1.1,3-3.2V9.9z"/>
	<path class="st0" d="M53.6,37.5c0-4.2,2.1-7.8,6.3-10.8c4.2-3,6.3-5.6,6.3-7.7V9.9c0-2.1-1-3.2-2.9-3.2h0c-2,0-2.9,1.1-2.9,3.2v6.3
		h-6.8V9.9c0-6.6,3.2-9.9,9.7-9.9C69.8,0,73,3.3,73,9.9v9.3c0,4.3-2.1,8-6.3,11c-4.2,3-6.3,5.6-6.3,7.9v2.8H73v6.7H53.6V37.5z"/>
	<path class="st0" d="M80.2,37.5c0-4.2,2.1-7.8,6.3-10.8c4.2-3,6.3-5.6,6.3-7.7V9.9c0-2.1-1-3.2-2.9-3.2h0c-2,0-2.9,1.1-2.9,3.2v6.3
		h-6.8V9.9c0-6.6,3.2-9.9,9.7-9.9c6.5,0,9.7,3.3,9.7,9.9v9.3c0,4.3-2.1,8-6.3,11c-4.2,3-6.3,5.6-6.3,7.9v2.8h12.6v6.7H80.2V37.5z"/>
	<path class="st0" d="M103.6,39.8h7.8v7.8h-7.8V39.8z"/>
	<path class="st0" d="M138.4,38.5c0,6.6-3.2,9.8-9.7,9.8c-6.5,0-9.7-3.3-9.7-9.8V9.9c0-6.6,3.2-9.9,9.7-9.9c6.5,0,9.7,3.3,9.7,9.9
		V38.5z M131.7,9.9c0-2.1-1-3.2-2.9-3.2h0c-1.9,0-2.9,1.1-2.9,3.2v28.6c0,2.1,1,3.2,2.9,3.2c2,0,3-1.1,3-3.2V9.9z"/>
	<path class="st0" d="M164.9,0.8v28.7h2.6v6.7h-2.6v11.5h-6.8V36.1h-13.7v-5.9l11.8-29.4H164.9z M151.1,29.4h7V11.6L151.1,29.4z"/>
	<path class="st0" d="M206.9,38.5c0,6.6-3.2,9.8-9.7,9.9c-6.5,0-9.7-3.3-9.7-9.9V9.9c0-6.6,3.2-9.8,9.7-9.8c6.5,0,9.7,3.3,9.7,9.8
		V38.5z M200.1,9.9c0-2.1-1-3.2-2.9-3.2h0c-1.9,0-2.9,1.1-2.9,3.2v28.6c0,2.1,1,3.2,2.9,3.2c2,0,3-1.1,3-3.2V9.9z"/>
	<path class="st0" d="M214.6,0.8h6.8l6.4,27.1V0.8h6.2v46.8h-6.8L221,21.3v26.3h-6.5V0.8z"/>
	<path class="st0" d="M274,31l2.2,16.6h-6.8l-1.3-9.9h-6.9l-1.3,9.9h-6.8l2.2-16.5L260,0.8h9.3L274,31z M267.2,31l-2.6-19.5L262,31
		H267.2z"/>
	<path class="st0" d="M282.3,0.8h6.8v46.8h-6.8V0.8z"/>
	<path class="st0" d="M297.4,0.8h9.8c6,0,9,3.3,9,9.9v7c0,4.1-1.8,6.8-5.3,8.1l7.6,21.8h-7.4L305,27l-0.9,0.1v20.5h-6.8V0.8z
		 M304.1,7.4v13.4h1.6c0.9,0,1.6-0.1,1.9-0.2c1.2-0.5,1.8-1.5,1.8-3v-7c0-2.1-1-3.2-2.9-3.2H304.1z"/>
</g>
</svg>
